<?xml version="1.0" encoding="utf-8"?>
<!-- Generator: Adobe Illustrator 23.0.1, SVG Export Plug-In . SVG Version: 6.00 Build 0)  -->
<svg version="1.1" id="Layer_1" xmlns="http://www.w3.org/2000/svg" xmlns:xlink="http://www.w3.org/1999/xlink" x="0px" y="0px"
	 viewBox="0 0 1280 1024" style="enable-background:new 0 0 1280 1024;" xml:space="preserve">
<style type="text/css">
	.st0{fill:#77D0F7;}
</style>
<path class="st0" d="M-1,146c0,0,36,19,42,60s1,50,5,65s7,43,5,70s13,30,22,28s16-15,10-59s-6-117,2-136s22-24,48-26s45,18,45,40
	s2,123,8,149s1,50,1,50s-9,46,15,42s21-28,17-57s-8-122-3-122s0-36,38-34s52-2,71-8s57,11,72,18s24,5,34,12s31,20,45,39s42,23,47,29
	s11,15,15,37s32,24,39-1s-8-54,29-70s36-3,73-30s66-37,72-36s78-32,156,38s69,87,73,92s9,36,8,42s-8,69,5,78s40,14,37-45s4-87,27-95
	s52,2,57,17s10,48,36,45s26-74,44-81s19-43,83-51l1-246H1L-1,146z"/>
</svg>
